<?xml version="1.0" encoding="UTF-8" standalone="no"?>
<svg
   width="221"
   height="258.61146871262497"
   version="1.1"
   id="svg78"
   sodipodi:docname="M_01.svg"
   inkscape:export-filename="m1.png"
   inkscape:export-xdpi="241.28859"
   inkscape:export-ydpi="241.28859"
   inkscape:version="1.3.2 (091e20e, 2023-11-25, custom)"
   xmlns:inkscape="http://www.inkscape.org/namespaces/inkscape"
   xmlns:sodipodi="http://sodipodi.sourceforge.net/DTD/sodipodi-0.dtd"
   xmlns="http://www.w3.org/2000/svg"
   xmlns:svg="http://www.w3.org/2000/svg">
  <defs
     id="defs78" />
  <sodipodi:namedview
     id="namedview78"
     pagecolor="#ffffff"
     bordercolor="#000000"
     borderopacity="0.25"
     inkscape:showpageshadow="2"
     inkscape:pageopacity="0.0"
     inkscape:pagecheckerboard="0"
     inkscape:deskcolor="#d1d1d1"
     inkscape:export-bgcolor="#ffffffff"
     inkscape:zoom="8"
     inkscape:cx="202.6875"
     inkscape:cy="18.9375"
     inkscape:window-width="1649"
     inkscape:window-height="1008"
     inkscape:window-x="203"
     inkscape:window-y="1"
     inkscape:window-maximized="0"
     inkscape:current-layer="svg78" />
  <title
     id="title1">10 by 10 sigma maze</title>
  <desc
     id="desc1">10 by 10 sigma maze generated by The Maze Generator Website (https://www.mazegenerator.net/).</desc>
  <g
     fill="none"
     stroke="#000000"
     stroke-width="2"
     stroke-linecap="round"
     stroke-linejoin="round"
     id="g78"
     transform="matrix(1.009085,0,0,1.0077523,-1.0019467,-0.9977182)">
    <polyline
       points="9,38.373066958946431 2,26.248711305964292 9,14.124355652982152 23,14.124355652982152 30,2.0000000000000107 44,2.0000000000000107 51,14.124355652982152 44,26.248711305964292"
       id="polyline1" />
    <polyline
       points="51,14.124355652982152 65,14.124355652982152 72,2.0000000000000107 86,2.0000000000000107 93,14.124355652982152 86,26.248711305964292"
       id="polyline2" />
    <polyline
       points="107,14.124355652982152 114,2.0000000000000107 128,2.0000000000000107 135,14.124355652982152 128,26.248711305964292"
       id="polyline3" />
    <polyline
       points="135,14.124355652982152 149,14.124355652982152 156,26.248711305964292"
       id="polyline4" />
    <polyline
       points="149,14.124355652982152 156,2.0000000000000107 170,2.0000000000000107 177,14.124355652982152 191,14.124355652982152 198,26.248711305964292"
       id="polyline5" />
    <polyline
       points="191,14.124355652982152 198,2.0000000000000107 212,2.0000000000000107 219,14.124355652982152 212,26.248711305964292"
       id="polyline6" />
    <polyline
       points="9,62.621778264910709 2,50.49742261192857 9,38.373066958946431"
       id="polyline7" />
    <polyline
       points="30,50.49742261192857 23,38.373066958946431 30,26.248711305964292"
       id="polyline8" />
    <polyline
       points="51,38.373066958946431 65,38.373066958946431 72,26.248711305964292 86,26.248711305964292 93,38.373066958946431 107,38.373066958946431 114,50.49742261192857"
       id="polyline9" />
    <line
       x1="107"
       y1="38.373066"
       x2="114"
       y2="26.248711"
       id="line9" />
    <polyline
       points="128,26.248711305964292 135,38.373066958946431 149,38.373066958946431 156,50.49742261192857"
       id="polyline10" />
    <polyline
       points="156,26.248711305964292 170,26.248711305964292 177,38.373066958946431 191,38.373066958946431"
       id="polyline11" />
    <polyline
       points="212,26.248711305964292 219,38.373066958946431 212,50.49742261192857"
       id="polyline12" />
    <polyline
       points="9,86.870489570875 2,74.746133917892848 9,62.621778264910709 23,62.621778264910709 30,50.49742261192857"
       id="polyline13" />
    <polyline
       points="44,50.49742261192857 51,62.621778264910709 44,74.746133917892848"
       id="polyline14" />
    <polyline
       points="51,62.621778264910709 65,62.621778264910709 72,50.49742261192857 86,50.49742261192857"
       id="polyline15" />
    <polyline
       points="93,62.621778264910709 107,62.621778264910709 114,74.746133917892848"
       id="polyline16" />
    <polyline
       points="107,62.621778264910709 114,50.49742261192857 128,50.49742261192857"
       id="polyline17" />
    <polyline
       points="128,74.746133917892848 135,62.621778264910709 149,62.621778264910709 156,74.746133917892848"
       id="polyline18" />
    <polyline
       points="156,50.49742261192857 170,50.49742261192857 177,62.621778264910709 191,62.621778264910709 198,74.746133917892848"
       id="polyline19" />
    <polyline
       points="198,50.49742261192857 212,50.49742261192857 219,62.621778264910709 212,74.746133917892848"
       id="polyline20" />
    <polyline
       points="9,111.11920087683929 2,98.994845223857141 9,86.870489570875 23,86.870489570875"
       id="polyline21" />
    <polyline
       points="30,74.746133917892848 44,74.746133917892848 51,86.870489570875 44,98.994845223857141"
       id="polyline22" />
    <polyline
       points="51,86.870489570875 65,86.870489570875 72,98.994845223857141"
       id="polyline23" />
    <polyline
       points="65,86.870489570875 72,74.746133917892848 86,74.746133917892848"
       id="polyline24" />
    <polyline
       points="93,86.870489570875 107,86.870489570875 114,74.746133917892848 128,74.746133917892848 135,86.870489570875 128,98.994845223857141"
       id="polyline25" />
    <polyline
       points="156,98.994845223857141 149,86.870489570875 156,74.746133917892848"
       id="polyline26" />
    <polyline
       points="170,74.746133917892848 177,86.870489570875 170,98.994845223857141"
       id="polyline27" />
    <line
       x1="191"
       y1="86.870491"
       x2="198"
       y2="98.994843"
       id="line27" />
    <polyline
       points="212,74.746133917892848 219,86.870489570875 212,98.994845223857141"
       id="polyline28" />
    <polyline
       points="9,135.36791218280357 2,123.24355652982142 9,111.11920087683927"
       id="polyline29" />
    <polyline
       points="30,123.24355652982142 23,111.11920087683927 30,98.994845223857126"
       id="polyline30" />
    <polyline
       points="44,98.994845223857126 51,111.11920087683927 44,123.24355652982142"
       id="polyline31" />
    <line
       x1="65"
       y1="111.1192"
       x2="72"
       y2="123.24355"
       id="line31" />
    <polyline
       points="72,98.994845223857126 86,98.994845223857126 93,111.11920087683927 107,111.11920087683927 114,123.24355652982142"
       id="polyline32" />
    <line
       x1="107"
       y1="111.1192"
       x2="114"
       y2="98.994843"
       id="line32" />
    <line
       x1="128"
       y1="123.24355"
       x2="135"
       y2="111.1192"
       id="line33" />
    <polyline
       points="156,123.24355652982142 149,111.11920087683927 156,98.994845223857126 170,98.994845223857126"
       id="polyline33" />
    <polyline
       points="177,111.11920087683927 191,111.11920087683927 198,98.994845223857126 212,98.994845223857126 219,111.11920087683927 212,123.24355652982142"
       id="polyline34" />
    <polyline
       points="9,159.61662348876783 2,147.4922678357857 9,135.36791218280357"
       id="polyline35" />
    <polyline
       points="30,147.4922678357857 23,135.36791218280357 30,123.24355652982142"
       id="polyline36" />
    <polyline
       points="44,147.4922678357857 51,135.36791218280357 65,135.36791218280357 72,147.4922678357857"
       id="polyline37" />
    <polyline
       points="65,135.36791218280357 72,123.24355652982142 86,123.24355652982142 93,135.36791218280357 86,147.4922678357857"
       id="polyline38" />
    <polyline
       points="107,135.36791218280357 114,123.24355652982142 128,123.24355652982142 135,135.36791218280357 149,135.36791218280357 156,147.4922678357857"
       id="polyline39" />
    <line
       x1="156"
       y1="123.24355"
       x2="170"
       y2="123.24355"
       id="line39" />
    <polyline
       points="170,147.4922678357857 177,135.36791218280357 191,135.36791218280357 198,123.24355652982142"
       id="polyline40" />
    <polyline
       points="212,123.24355652982142 219,135.36791218280357 212,147.4922678357857"
       id="polyline41" />
    <polyline
       points="9,183.86533479473212 2,171.74097914175 9,159.61662348876786"
       id="polyline42" />
    <polyline
       points="23,159.61662348876786 30,147.49226783578573 44,147.49226783578573 51,159.61662348876786 44,171.74097914175"
       id="polyline43" />
    <line
       x1="65"
       y1="159.61662"
       x2="72"
       y2="171.74098"
       id="line43" />
    <polyline
       points="86,147.49226783578573 93,159.61662348876786 86,171.74097914175"
       id="polyline44" />
    <polyline
       points="93,159.61662348876786 107,159.61662348876786 114,171.74097914175"
       id="polyline45" />
    <polyline
       points="107,159.61662348876786 114,147.49226783578573 128,147.49226783578573 135,159.61662348876786 149,159.61662348876786 156,171.74097914175"
       id="polyline46" />
    <polyline
       points="156,147.49226783578573 170,147.49226783578573 177,159.61662348876786 170,171.74097914175"
       id="polyline47" />
    <polyline
       points="177,159.61662348876786 191,159.61662348876786 198,147.49226783578573"
       id="polyline48" />
    <polyline
       points="212,147.49226783578573 219,159.61662348876786 212,171.74097914175"
       id="polyline49" />
    <polyline
       points="9,208.11404610069639 2,195.98969044771425 9,183.86533479473212 23,183.86533479473212 30,195.98969044771425"
       id="polyline50" />
    <polyline
       points="30,171.74097914175 44,171.74097914175 51,183.86533479473212 44,195.98969044771425"
       id="polyline51" />
    <polyline
       points="65,183.86533479473212 72,171.74097914175 86,171.74097914175"
       id="polyline52" />
    <polyline
       points="93,183.86533479473212 107,183.86533479473212 114,171.74097914175 128,171.74097914175"
       id="polyline53" />
    <polyline
       points="128,195.98969044771425 135,183.86533479473212 149,183.86533479473212 156,171.74097914175"
       id="polyline54" />
    <polyline
       points="170,171.74097914175 177,183.86533479473212 170,195.98969044771425"
       id="polyline55" />
    <polyline
       points="177,183.86533479473212 191,183.86533479473212 198,195.98969044771425"
       id="polyline56" />
    <line
       x1="191"
       y1="183.86534"
       x2="198"
       y2="171.74098"
       id="line56" />
    <polyline
       points="212,171.74097914175 219,183.86533479473212 212,195.98969044771425"
       id="polyline57" />
    <polyline
       points="9,232.36275740666068 2,220.23840175367855 9,208.11404610069641"
       id="polyline58" />
    <line
       x1="23"
       y1="208.11404"
       x2="30"
       y2="195.98969"
       id="line58" />
    <polyline
       points="44,195.98969044771428 51,208.11404610069641 44,220.23840175367855"
       id="polyline59" />
    <polyline
       points="51,208.11404610069641 65,208.11404610069641 72,195.98969044771428 86,195.98969044771428 93,208.11404610069641"
       id="polyline60" />
    <polyline
       points="114,220.23840175367855 107,208.11404610069641 114,195.98969044771428"
       id="polyline61" />
    <polyline
       points="128,195.98969044771428 135,208.11404610069641 128,220.23840175367855"
       id="polyline62" />
    <polyline
       points="156,220.23840175367855 149,208.11404610069641 156,195.98969044771428 170,195.98969044771428 177,208.11404610069641 170,220.23840175367855"
       id="polyline63" />
    <polyline
       points="198,220.23840175367855 191,208.11404610069641 198,195.98969044771428"
       id="polyline64" />
    <polyline
       points="212,195.98969044771428 219,208.11404610069641 212,220.23840175367855"
       id="polyline65" />
    <polyline
       points="9,256.61146871262497 2,244.48711305964284 9,232.36275740666071"
       id="polyline66" />
    <polyline
       points="23,232.36275740666071 30,220.23840175367857 44,220.23840175367857"
       id="polyline67" />
    <polyline
       points="44,244.48711305964284 51,232.36275740666071 65,232.36275740666071 72,220.23840175367857 86,220.23840175367857"
       id="polyline68" />
    <polyline
       points="93,232.36275740666071 107,232.36275740666071 114,244.48711305964284"
       id="polyline69" />
    <polyline
       points="107,232.36275740666071 114,220.23840175367857 128,220.23840175367857"
       id="polyline70" />
    <polyline
       points="128,244.48711305964284 135,232.36275740666071 149,232.36275740666071 156,220.23840175367857"
       id="polyline71" />
    <polyline
       points="170,220.23840175367857 177,232.36275740666071 191,232.36275740666071"
       id="polyline72" />
    <polyline
       points="212,220.23840175367857 219,232.36275740666071 212,244.48711305964284"
       id="polyline73" />
    <polyline
       points="30,244.48711305964284 23,256.61146871262497 9,256.61146871262497"
       id="polyline74" />
    <line
       x1="44"
       y1="244.48711"
       x2="30"
       y2="244.48711"
       id="line74" />
    <polyline
       points="72,244.48711305964284 65,256.61146871262497 51,256.61146871262497 44,244.48711305964284"
       id="polyline75" />
    <line
       x1="86"
       y1="244.48711"
       x2="72"
       y2="244.48711"
       id="line75" />
    <polyline
       points="114,244.48711305964284 107,256.61146871262497 93,256.61146871262497 86,244.48711305964284"
       id="polyline76" />
    <polyline
       points="156,244.48711305964284 149,256.61146871262497 135,256.61146871262497 128,244.48711305964284"
       id="polyline77" />
    <line
       x1="170"
       y1="244.48711"
       x2="156"
       y2="244.48711"
       id="line77" />
    <polyline
       points="198,244.48711305964284 191,256.61146871262497 177,256.61146871262497 170,244.48711305964284"
       id="polyline78" />
    <line
       x1="212"
       y1="244.48711"
       x2="198"
       y2="244.48711"
       id="line78" />
  </g>
</svg>
